<svg xmlns="http://www.w3.org/2000/svg" viewBox="0 0 512 512">
  <defs>
    <linearGradient id="bg" x1="0%" y1="0%" x2="100%" y2="100%">
      <stop offset="0%" stop-color="#00205B"/>
      <stop offset="50%" stop-color="#003080"/>
      <stop offset="100%" stop-color="#C8102E"/>
    </linearGradient>
    <linearGradient id="ball" x1="0%" y1="0%" x2="100%" y2="100%">
      <stop offset="0%" stop-color="#FFB81C"/>
      <stop offset="100%" stop-color="#ffc94d"/>
    </linearGradient>
  </defs>
  <rect width="512" height="512" rx="108" fill="url(#bg)"/>
  <circle cx="256" cy="230" r="110" fill="url(#ball)" stroke="#00205B" stroke-width="4"/>
  <path d="M256 120 L220 190 L292 190 Z" fill="#00205B" opacity="0.8"/>
  <path d="M356 190 L320 160 L310 230 L340 250 Z" fill="#00205B" opacity="0.8"/>
  <path d="M156 190 L192 160 L202 230 L172 250 Z" fill="#00205B" opacity="0.8"/>
  <path d="M192 310 L172 280 L240 280 L240 320 Z" fill="#00205B" opacity="0.8"/>
  <path d="M320 310 L340 280 L272 280 L272 320 Z" fill="#00205B" opacity="0.8"/>
  <path d="M220 330 L292 330 L300 380 L212 380 Z" fill="#00205B" opacity="0.8"/>
  <text x="256" y="480" text-anchor="middle" font-family="Arial,sans-serif" font-size="56" font-weight="bold" fill="#ffffff" letter-spacing="4">MATCHDAY</text>
</svg>
